<svg width="40" height="50" viewBox="0 0 40 50" fill="none" xmlns="http://www.w3.org/2000/svg">
<path fill-rule="evenodd" clip-rule="evenodd" d="M39.0976 38.1581V1.46455C39.0976 0.656054 38.4413 0 37.6328 0H4.20312C1.88574 0 0 1.88535 0 4.20214V42.5595L3.36132 40.0328C10.1094 39.9469 15.3955 39.8786 19.5488 39.8229C33.7683 39.6339 34.7174 39.6041 35.6664 39.6097C35.9876 39.6116 36.3088 39.6175 37.1445 39.6227L39.0976 38.1581ZM11.1488 12.72C9.91164 12.72 8.90881 13.7229 8.90881 14.96V20.56H7.22882C6.30104 20.56 5.54882 21.3121 5.54882 22.24C5.54882 23.1678 6.30104 23.92 7.22882 23.92H12.2688V16.08H17.8688V23.92H17.3088C16.381 23.92 15.6288 24.6721 15.6288 25.6C15.6288 26.5278 16.381 27.28 17.3088 27.28H21.7888C22.7166 27.28 23.4688 26.5278 23.4688 25.6C23.4688 24.6721 22.7166 23.92 21.7888 23.92H21.2288V16.08H26.8288V23.92H31.8688C32.7966 23.92 33.5488 23.1678 33.5488 22.24C33.5488 21.3121 32.7966 20.56 31.8688 20.56H30.1888V14.96C30.1888 13.7229 29.186 12.72 27.9488 12.72H11.1488Z" fill="#2F76FF"/>
<path d="M39.0976 38.1583V41.0873H4.40234C3.58984 41.0873 2.92968 41.7473 2.92968 42.5597C2.92968 43.372 3.58984 44.0329 4.40234 44.0329H5.79589V46.9619H4.40234C1.97461 46.9619 0 44.9868 0 42.5596C0 40.1324 1.97461 38.1582 4.40234 38.1582H39.0976V38.1583Z" fill="#2F76FF"/>
<path d="M39.0976 44.0332V45.4978C39.0976 46.3061 38.4414 46.9623 37.6328 46.9623H5.7959V44.0333H39.0976V44.0332Z" fill="#2F76FF"/>
<path d="M15.0488 42V48.684C15.0488 49.7378 13.8278 50.3621 12.9281 49.7715L10.5484 48.2098L8.17047 49.7715C7.26621 50.3643 6.04883 49.7336 6.04883 48.684V42H15.0488Z" fill="#2F76FF"/>
</svg>
